<?xml version="1.0" encoding="UTF-8"?>
<svg id="font02" xmlns="http://www.w3.org/2000/svg" viewBox="0 0 327.97 77.49">
  <defs>
    <style>
      .cls-1 {
        fill: none;
      }

      .cls-2 {
        fill: #e5002d;
      }
    </style>
  </defs>
  <path class="cls-1" d="M309.01,58.05l-.82-38.66H18.06l.82,38.66h290.13ZM327.97,77.49V0H0v77.49h327.97Z"/>
  <g>
    <polyline class="cls-2" points="118.08 34.16 92.57 34.16 92.57 19.32 79.38 19.32 79.38 58.14 92.57 58.14 92.57 42.54 118.08 42.54 118.08 58.14 131.27 58.14 131.27 19.32 118.08 19.32 118.08 34.16"/>
    <path class="cls-2" d="M153.28,42.54l9.18-15.07,8.9,15.07h-18.08M157.35,19.32l-23.65,38.82h10.08l4.84-7.94h27.26l4.69,7.94h16.1l-23.64-38.82h-15.68Z"/>
    <path class="cls-2" d="M248.97,36.14c3.14-4.11,2.71-10.14-3.31-13.59-5.62-3.23-16.35-4.41-23.05-4.41-10.73,0-17.63.73-23.5,1.73v38.27h13.18V25.68c4.75-.94,9.57-.96,11.37-.88,5.23.23,8.17,1.04,10.53,2.72,2.43,1.73,3.09,5.57-.06,8.23-2.36,1.99-7.16,3.54-17.88,1.91l-1.51,2.49,20.27,18h17.95l-18.03-15.6c4.33-.56,10.9-2.29,14.04-6.4"/>
    <path class="cls-2" d="M50.48,32.74c-7.61-1.48-14.08-2.4-14.08-4.87,0-2.74,5.23-3.44,12.64-2.65,7.01.74,13.62,2.58,19.79,5.2l4.68-7.68c-4.98-1.9-15.25-4.33-24.58-4.6-10.22-.3-27.46.62-28.21,10.95-.68,9.46,12.79,11.71,21.62,13.77,8.62,2.01,16.7,2.73,16.7,5.71,0,2.1-2.85,3.74-10.38,3.17-9.06-.68-16.78-3.16-24.47-6.98l-5.11,8.4c8.53,3.33,19.73,6.01,29.81,6.18,11.98.2,25.52-1.73,25.83-12,.25-8.57-8.62-11.56-24.24-14.6"/>
    <path class="cls-2" d="M291.57,35.83c-2.27,1.86-5.61,2.53-10.85,2.51-3.88-.01-7.89-.72-11.15-1.46v-11.2c4.75-.94,9.65-.95,11.45-.88,5.26.22,8.33,1.11,10.61,2.72,2.37,1.67,3.17,5.67-.06,8.31M303.1,22.55c-5.37-3.18-15.42-4.41-23.13-4.41-10.72,0-17.71.73-23.58,1.73v38.27h13.18v-14.02c4.07.68,9.18,1.08,13.6,1.04,10.79-.09,18.81-2.63,22.46-6.6,5.19-5.65,3.45-12.48-2.53-16.01Z"/>
  </g>
</svg>